<svg width="23" height="30" viewBox="0 0 23 30" fill="none" xmlns="http://www.w3.org/2000/svg">
<path d="M0.00106193 0V9.3501H1.61209L1.61209 1.61103H20.9734V18.7084C20.9734 19.9798 20.723 21.2387 20.2365 22.4132C19.75 23.5878 19.0369 24.655 18.1379 25.554C17.2389 26.4529 16.1717 27.166 14.9972 27.6526C13.8226 28.139 12.5637 28.3895 11.2924 28.3895C10.021 28.3895 8.76213 28.139 7.58758 27.6526C6.41302 27.166 5.34578 26.4529 4.44682 25.554C3.54786 24.655 2.83475 23.5878 2.34823 22.4132C1.86171 21.2387 1.6113 19.9798 1.6113 18.7084V17.3689H7.68249V18.7084C7.68249 19.6654 8.06265 20.5832 8.73934 21.2599C9.416 21.9366 10.3338 22.3167 11.2908 22.3167C12.2478 22.3167 13.1655 21.9366 13.8422 21.2599C14.5189 20.5832 14.8991 19.6654 14.8991 18.7084V7.68355H7.68328V9.3501H13.2349V18.7084C13.2349 19.2237 13.0302 19.7178 12.6659 20.0822C12.3015 20.4465 11.8074 20.6512 11.2921 20.6512C10.7768 20.6512 10.2827 20.4465 9.91833 20.0822C9.55399 19.7178 9.3493 19.2237 9.3493 18.7084V15.701H1.61103H0V18.7076C0 21.7025 1.18972 24.5747 3.30741 26.6924C5.42513 28.8103 8.29733 30 11.2922 30C14.2871 30 17.1593 28.8103 19.2771 26.6924C21.3948 24.5747 22.5845 21.7025 22.5845 18.7076V0H0.00106193Z" fill="#231D4F"/>
<path d="M11.2945 23.7036C9.96948 23.7026 8.69898 23.1759 7.76187 22.2392C6.82474 21.3024 6.29752 20.0322 6.2959 18.7072H4.63227C4.63227 20.4738 5.33406 22.1681 6.58328 23.4173C7.83248 24.6665 9.52678 25.3683 11.2934 25.3683C13.0601 25.3683 14.7544 24.6665 16.0036 23.4173C17.2528 22.1681 17.9546 20.4738 17.9546 18.7072V4.62891H2.68769V9.34805H4.35131V6.29333H16.2885V18.7061C16.2877 20.0307 15.7614 21.3008 14.8251 22.2377C13.8888 23.1747 12.619 23.7019 11.2945 23.7036Z" fill="#BB6BD9"/>
</svg>
